# xmcd
#
# Track frame offsets:
#	150
#	20682
#	34840
#	61840
#	74297
#	92220
#	101212
#	115462
#	135032
#	147037
#	163615
#	186567
#	199612
#	218132
#	230140
#
# Disc length: 3374 seconds
#
# Revision: 3
# Processed by: cddbd v1.5PL3 Copyright (c) Steve Scherf et al.
# Submitted via: audiograbber 1.83.01
#
DISCID=dc0d2c0f
DTITLE=Various Classical Artists - Bibbidi Bobbidi Bach
DYEAR=1996
DGENRE=Classical
TTITLE0=Beethoven - Whistle While You Work
TTITLE1=Haydn - Give a Little Whistle
TTITLE2=Chopin - A Whole New World
TTITLE3=F Faure - Lavender Blue
TTITLE4=Williams - Just around the Riverbend
TTITLE5=Pachelbel - Chim Chim Cher-ee
TTITLE6=Falla - The Siamese Cat Song
TTITLE7=Berlioz - Some Day My Prince Will Come
TTITLE8=Gregorian Chant - Circle of Life
TTITLE9=Debussy - So This is Love
TTITLE10=Sibelius - Kiss the Girl
TTITLE11=Bach - Bibbidi-Bobbidi-Boo
TTITLE12=Berstein - You've Got a Friend In Me
TTITLE13=Satie - Bella Notte
TTITLE14=Copland - The Ballad of Davy Crockett
EXTD=YEAR: 1996 ID3G: 32
EXTT0=
EXTT1=
EXTT2=
EXTT3=
EXTT4=
EXTT5=
EXTT6=
EXTT7=
EXTT8=
EXTT9=
EXTT10=
EXTT11=
EXTT12=
EXTT13=
EXTT14=
PLAYORDER=
